<svg viewBox="0 0 280 78" fill="none" xmlns="http://www.w3.org/2000/svg">
<path d="M104.493 0.525879V36.2504V41.2846V77.0289H99.3995V41.2846H5.08372V77.0289H0V41.2846V36.2504V0.525879H5.08372V36.2504H99.3995V0.525879H104.493ZM94.3257 0.525879H89.242V26.0631H15.261V0.525879H10.1773V31.0875H94.3257V0.525879ZM25.4581 0.525879H20.4239V20.8805H25.4581V0.525879ZM84.1187 0.525879H79.0251V20.8805H84.1088V0.525879H84.1187ZM10.1773 77.0289H15.261V51.4916H89.2321V77.0289H94.3158V46.398H10.1773V77.0289ZM78.9855 77.0289H84.0692V56.605H78.9855V77.0289ZM20.3843 77.0289H25.468V56.605H20.3843V77.0289Z" fill="#E12991"/>
<path d="M132.76 0.525879V23.0169H128.359V13.7H119.24V23.0169H114.809V0.525879H119.24V9.457H128.359V0.525879H132.76Z" fill="white"/>
<path d="M150.85 6.95508V23.0172H146.706V21.2172C145.737 22.6612 144.075 23.4623 141.919 23.4623C138.517 23.4623 135.846 21.0886 135.846 16.806V6.95508H139.99V16.3016C139.99 18.4874 141.306 19.6149 143.175 19.6149C145.202 19.6149 146.706 18.4281 146.706 15.629V6.95508H150.85Z" fill="white"/>
<path d="M178.484 13.1163V23.0166H174.34V13.413C174.34 11.514 173.371 10.3568 171.64 10.3568C169.81 10.3568 168.653 11.5832 168.653 13.9866V23.0166H164.509V13.413C164.509 11.514 163.539 10.3568 161.809 10.3568C160.038 10.3568 158.792 11.5832 158.792 13.9866V23.0166H154.648V6.95447H158.792V8.65564C159.692 7.31053 161.205 6.49951 163.262 6.49951C165.25 6.49951 166.734 7.33031 167.634 8.81389C168.633 7.36988 170.235 6.49951 172.421 6.49951C176.071 6.49951 178.484 9.10071 178.484 13.1163Z" fill="white"/>
<path d="M198.364 6.9546V23.0168H194.22V21.1178C193.063 22.5618 191.332 23.4618 188.978 23.4618C184.705 23.4618 181.174 19.7628 181.174 14.9758C181.174 10.1888 184.705 6.48975 188.978 6.48975C191.322 6.48975 193.063 7.38978 194.22 8.83379V6.9546H198.364ZM194.22 14.9857C194.22 12.2856 192.321 10.4558 189.749 10.4558C187.207 10.4558 185.318 12.2856 185.318 14.9857C185.318 17.6858 187.217 19.5155 189.749 19.5155C192.321 19.5155 194.22 17.6858 194.22 14.9857Z" fill="white"/>
<path d="M217.126 13.1562V23.017H212.982V13.6705C212.982 11.4847 211.667 10.3572 209.797 10.3572C207.77 10.3572 206.266 11.5441 206.266 14.3431V23.017H202.122V6.95487H206.266V8.75494C207.236 7.31093 208.897 6.5098 211.053 6.5098C214.456 6.49991 217.126 8.88352 217.126 13.1562Z" fill="white"/>
<path d="M122.227 42.2142H119.23V50.0277H114.799V27.5269H124.175C128.319 27.5269 131.662 30.8698 131.662 34.9843C131.662 37.813 129.892 40.3548 127.32 41.5417L132.305 50.0277H127.518L122.227 42.2142ZM119.24 38.3273H124.185C125.857 38.3273 127.241 36.8437 127.241 34.9843C127.241 33.1249 125.857 31.671 124.185 31.671H119.24V38.3273Z" fill="white"/>
<path d="M134.244 29.4851C134.244 28.1004 135.787 26.9136 137.161 26.9136C138.576 26.9136 139.347 28.1004 139.347 29.4851C139.347 30.8698 138.19 32.027 136.776 32.027C135.401 32.027 134.244 30.8698 134.244 29.4851ZM134.718 33.9556H138.863V50.0277H134.718V33.9556Z" fill="white"/>
<path d="M158.367 33.9559V49.2565C158.367 54.5282 154.223 56.9019 149.98 56.9019C146.538 56.9019 143.778 55.5865 142.364 52.9853L145.895 50.9577C146.567 52.2138 147.626 53.2028 150.108 53.2028C152.709 53.2028 154.321 51.7885 154.321 49.2467V47.5158C153.194 49.0291 151.463 49.9588 149.178 49.9588C144.619 49.9588 141.177 46.2597 141.177 41.7299C141.177 37.2297 144.619 33.501 149.178 33.501C151.463 33.501 153.194 34.4307 154.321 35.9439V33.9559H158.367ZM154.321 41.7299C154.321 39.188 152.423 37.3583 149.821 37.3583C147.22 37.3583 145.321 39.188 145.321 41.7299C145.321 44.3014 147.22 46.1311 149.821 46.1311C152.423 46.1311 154.321 44.3014 154.321 41.7299Z" fill="white"/>
<path d="M177.129 40.157V50.0178H172.985V40.6713C172.985 38.4855 171.669 37.358 169.8 37.358C167.772 37.358 166.269 38.5449 166.269 41.3439V50.0178H162.125V27.5269H166.269V35.7558C167.238 34.3117 168.9 33.5106 171.056 33.5106C174.468 33.5007 177.129 35.8843 177.129 40.157Z" fill="white"/>
<path d="M186.218 37.9421V44.6281C186.218 46.3589 187.474 46.3985 189.848 46.2699V50.0283C184.032 50.6712 182.074 48.97 182.074 44.6281V37.9421H179.275V33.9562H182.074V30.7121L186.218 29.4561V33.9562H189.848V37.9421H186.218Z" fill="white"/>
<path d="M204.535 45.3301C204.535 48.8017 201.519 50.4732 198.077 50.4732C194.863 50.4732 192.489 49.1281 191.332 46.6456L194.932 44.618C195.387 45.9335 196.475 46.7049 198.077 46.7049C199.392 46.7049 200.292 46.2598 200.292 45.3202C200.292 42.9762 192.004 44.262 192.004 38.6046C192.004 35.3308 194.803 33.4912 198.107 33.4912C200.708 33.4912 202.963 34.6781 204.209 36.8935L200.678 38.8222C200.194 37.7936 199.294 37.1804 198.107 37.1804C197.078 37.1804 196.247 37.6254 196.247 38.4958C196.247 40.8992 204.535 39.4156 204.535 45.3301Z" fill="white"/>
<path d="M119.24 58.7713V64.1023H128.745V68.3453H119.24V77.0193H114.809V54.5283H129.002V58.7713H119.24Z" fill="white"/>
<path d="M130.574 68.988C130.574 64.201 134.333 60.502 139.061 60.502C143.788 60.502 147.576 64.201 147.576 68.988C147.576 73.775 143.788 77.474 139.061 77.474C134.333 77.474 130.574 73.775 130.574 68.988ZM143.432 68.988C143.432 66.3868 141.533 64.5571 139.061 64.5571C136.618 64.5571 134.719 66.3868 134.719 68.988C134.719 71.5892 136.618 73.4189 139.061 73.4189C141.533 73.4288 143.432 71.5892 143.432 68.988Z" fill="white"/>
<path d="M164.598 60.957V77.0291H160.454V75.229C159.484 76.673 157.823 77.4742 155.667 77.4742C152.264 77.4742 149.594 75.1004 149.594 70.8179V60.957H153.738V70.3036C153.738 72.4894 155.053 73.6169 156.923 73.6169C158.95 73.6169 160.454 72.43 160.454 69.631V60.957H164.598Z" fill="white"/>
<path d="M183.39 67.1581V77.019H179.246V67.6724C179.246 65.4866 177.93 64.3591 176.061 64.3591C174.033 64.3591 172.53 65.546 172.53 68.345V77.019H168.386V60.9568H172.53V62.7569C173.499 61.3129 175.161 60.5117 177.317 60.5117C180.729 60.5117 183.39 62.8854 183.39 67.1581Z" fill="white"/>
<path d="M203.25 54.5283V77.0193H199.106V75.1203C197.948 76.6039 196.247 77.4644 193.903 77.4644C189.601 77.4644 186.06 73.7653 186.06 68.9783C186.06 64.1913 189.591 60.4923 193.903 60.4923C196.247 60.4923 197.948 61.3627 199.106 62.8363V54.5283H203.25ZM199.106 68.9882C199.106 66.2881 197.207 64.4584 194.675 64.4584C192.103 64.4584 190.204 66.2881 190.204 68.9882C190.204 71.6883 192.103 73.5181 194.675 73.5181C197.207 73.5181 199.106 71.6883 199.106 68.9882Z" fill="white"/>
<path d="M223.199 60.9569V77.029H219.055V75.13C217.898 76.574 216.167 77.474 213.813 77.474C209.54 77.474 206.009 73.775 206.009 68.988C206.009 64.201 209.54 60.502 213.813 60.502C216.157 60.502 217.898 61.402 219.055 62.846V60.9569H223.199ZM219.055 68.988C219.055 66.2879 217.156 64.4582 214.584 64.4582C212.042 64.4582 210.153 66.2879 210.153 68.988C210.153 71.6881 212.052 73.5178 214.584 73.5178C217.156 73.5178 219.055 71.6881 219.055 68.988Z" fill="white"/>
<path d="M232.704 64.9426V71.6286C232.704 73.3594 233.96 73.399 236.333 73.2704V77.0288C230.518 77.6717 228.559 75.9705 228.559 71.6286V64.9426H225.76V60.9567H228.559V57.7126L232.704 56.4565V60.9567H236.333V64.9426H232.704Z" fill="white"/>
<path d="M238.776 56.4866C238.776 55.1019 239.934 53.915 241.318 53.915C242.733 53.915 243.89 55.1019 243.89 56.4866C243.89 57.8712 242.733 59.0284 241.318 59.0284C239.934 59.0284 238.776 57.8712 238.776 56.4866ZM239.261 60.9571H243.405V77.0291H239.261V60.9571Z" fill="white"/>
<path d="M245.72 68.988C245.72 64.201 249.478 60.502 254.206 60.502C258.933 60.502 262.721 64.201 262.721 68.988C262.721 73.775 258.933 77.474 254.206 77.474C249.478 77.474 245.72 73.775 245.72 68.988ZM258.567 68.988C258.567 66.3868 256.668 64.5571 254.196 64.5571C251.753 64.5571 249.854 66.3868 249.854 68.988C249.854 71.5892 251.753 73.4189 254.196 73.4189C256.678 73.4288 258.567 71.5892 258.567 68.988Z" fill="white"/>
<path d="M280 67.1581V77.019H275.856V67.6724C275.856 65.4866 274.54 64.3591 272.671 64.3591C270.644 64.3591 269.14 65.546 269.14 68.345V77.019H264.996V60.9568H269.14V62.7569C270.109 61.3129 271.771 60.5117 273.927 60.5117C277.33 60.5117 280 62.8854 280 67.1581Z" fill="white"/>
</svg>
