<?xml version="1.0" encoding="UTF-8"?>
<svg version="1.1" xmlns="http://www.w3.org/2000/svg" width="3773" height="1092">
<path d="M0 0 C13.86 0 27.72 0 42 0 C39.54264542 15.33390644 37.08320591 30.66747504 34.61993504 46.00043201 C33.47629246 53.11961663 32.3335956 60.23895064 31.19311523 67.35864258 C30.19920124 73.56334738 29.20352282 79.767766 28.20571464 85.97184581 C27.67732902 89.25758811 27.15009816 92.543509 26.62445259 95.82969093 C26.0378545 99.49597042 25.44813927 103.16173552 24.85766602 106.82739258 C24.59656288 108.46629456 24.59656288 108.46629456 24.33018494 110.13830566 C24.16894135 111.13529984 24.00769775 112.13229401 23.84156799 113.15950012 C23.70237725 114.02690732 23.56318651 114.89431452 23.41977787 115.78800678 C23 118 23 118 22 121 C34.87 121 47.74 121 61 121 C61.66 115.72 62.32 110.44 63 105 C63.57325852 101.17548553 64.16111324 97.36025997 64.78759766 93.54492188 C65.03675179 92.00522987 65.03675179 92.00522987 65.29093933 90.43443298 C65.82924726 87.11208829 66.37160267 83.79041906 66.9140625 80.46875 C67.29260136 78.13753295 67.67088265 75.80627407 68.04891968 73.47497559 C69.03601489 67.39201748 70.02656695 61.30962739 71.0178833 55.22735596 C72.03227311 48.99957156 73.04333278 42.77124662 74.0546875 36.54296875 C76.03323185 24.36145256 78.01574309 12.18058697 80 0 C93.86 0 107.72 0 122 0 C119.54264542 15.33390644 117.08320591 30.66747504 114.61993504 46.00043201 C113.47629246 53.11961663 112.3335956 60.23895064 111.19311523 67.35864258 C110.19920124 73.56334738 109.20352282 79.767766 108.20571464 85.97184581 C107.67732902 89.25758811 107.15009816 92.543509 106.62445259 95.82969093 C106.0378545 99.49597042 105.44813927 103.16173552 104.85766602 106.82739258 C104.59656288 108.46629456 104.59656288 108.46629456 104.33018494 110.13830566 C104.16894135 111.13529984 104.00769775 112.13229401 103.84156799 113.15950012 C103.70237725 114.02690732 103.56318651 114.89431452 103.41977787 115.78800678 C103 118 103 118 102 121 C103.15371094 120.97679688 104.30742187 120.95359375 105.49609375 120.9296875 C150.72929451 120.30236574 197.92951414 128.23546388 238 150 C238.66193359 150.35175293 239.32386719 150.70350586 240.00585938 151.06591797 C253.39019555 158.19035529 265.50353768 166.30345907 276.55859375 176.71484375 C278.62934139 178.65306354 280.74535715 180.45397331 282.9375 182.25 C318.29452779 213.20543861 336.04095708 264.03957205 339.68359375 309.671875 C343.447789 366.76753172 329.93469482 423.75376017 294 469 C293.06414062 470.24136719 293.06414062 470.24136719 292.109375 471.5078125 C276.96340337 491.00676023 258.24722484 506.63004033 237 519 C237.76123169 519.46672119 237.76123169 519.46672119 238.5378418 519.94287109 C278.78696108 544.72065265 309.85144946 577.54681203 321.22827148 624.59692383 C337.15708917 694.55985089 320.97902684 772.36872435 283.0625 832.875 C277.48083505 841.58214373 271.37935748 849.86481355 265 858 C263.89785156 859.423125 263.89785156 859.423125 262.7734375 860.875 C211.06051443 925.9519369 130.98463491 958.93558647 50.11425781 968.45751953 C28.38488605 970.91189307 6.84997167 971.36664234 -15 971 C-15.09896576 971.87039917 -15.19793152 972.74079834 -15.29989624 973.63757324 C-16.80942523 986.32833773 -18.8545015 998.91984613 -20.9140625 1011.53125 C-21.29260136 1013.86246705 -21.67088265 1016.19372593 -22.04891968 1018.52502441 C-23.03601489 1024.60798252 -24.02656695 1030.69037261 -25.0178833 1036.77264404 C-26.03227311 1043.00042844 -27.04333278 1049.22875338 -28.0546875 1055.45703125 C-30.03323185 1067.63854744 -32.01574309 1079.81941303 -34 1092 C-47.53 1092 -61.06 1092 -75 1092 C-74.37112324 1083.82460215 -73.67109881 1075.97459224 -72.34179688 1067.93310547 C-72.17744644 1066.91190109 -72.01309601 1065.89069672 -71.84376526 1064.83854675 C-71.30731738 1061.51389002 -70.7632188 1058.19053925 -70.21875 1054.8671875 C-69.84103169 1052.53889322 -69.46371904 1050.2105331 -69.08679199 1047.8821106 C-68.29995591 1043.02860679 -67.50955005 1038.17570315 -66.71630859 1033.32324219 C-65.69870114 1027.0976202 -64.68810651 1020.87088541 -63.67989349 1014.64373589 C-62.90300618 1009.84800105 -62.12347793 1005.05269869 -61.34303284 1000.25754166 C-60.96926308 997.96026168 -60.59608155 995.66288592 -60.22349548 993.36541367 C-59.70426989 990.16750502 -59.18173802 986.97015482 -58.65820312 983.77294922 C-58.50440689 982.82233109 -58.35061066 981.87171295 -58.19215393 980.89228821 C-58.04918381 980.02346512 -57.90621368 979.15464203 -57.75891113 978.25949097 C-57.6357679 977.50483488 -57.51262466 976.75017879 -57.38574982 975.97265434 C-57 974 -57 974 -56 971 C-68.87 971 -81.74 971 -95 971 C-95.66 976.28 -96.32 981.56 -97 987 C-97.57325852 990.82451447 -98.16111324 994.63974003 -98.78759766 998.45507812 C-98.95370041 999.48153946 -99.11980316 1000.50800079 -99.29093933 1001.56556702 C-99.82924726 1004.88791171 -100.37160267 1008.20958094 -100.9140625 1011.53125 C-101.29260136 1013.86246705 -101.67088265 1016.19372593 -102.04891968 1018.52502441 C-103.03601489 1024.60798252 -104.02656695 1030.69037261 -105.0178833 1036.77264404 C-106.03227311 1043.00042844 -107.04333278 1049.22875338 -108.0546875 1055.45703125 C-110.03323185 1067.63854744 -112.01574309 1079.81941303 -114 1092 C-127.53 1092 -141.06 1092 -155 1092 C-154.37112324 1083.82460215 -153.67109881 1075.97459224 -152.34179688 1067.93310547 C-152.17744644 1066.91190109 -152.01309601 1065.89069672 -151.84376526 1064.83854675 C-151.30731738 1061.51389002 -150.7632188 1058.19053925 -150.21875 1054.8671875 C-149.84103169 1052.53889322 -149.46371904 1050.2105331 -149.08679199 1047.8821106 C-148.29995591 1043.02860679 -147.50955005 1038.17570315 -146.71630859 1033.32324219 C-145.69870114 1027.0976202 -144.68810651 1020.87088541 -143.67989349 1014.64373589 C-142.90300618 1009.84800105 -142.12347793 1005.05269869 -141.34303284 1000.25754166 C-140.96926308 997.96026168 -140.59608155 995.66288592 -140.22349548 993.36541367 C-139.70426989 990.16750502 -139.18173802 986.97015482 -138.65820312 983.77294922 C-138.50440689 982.82233109 -138.35061066 981.87171295 -138.19215393 980.89228821 C-138.04918381 980.02346512 -137.90621368 979.15464203 -137.75891113 978.25949097 C-137.6357679 977.50483488 -137.51262466 976.75017879 -137.38574982 975.97265434 C-137 974 -137 974 -136 971 C-206.62 971 -277.24 971 -350 971 C-347.07895757 948.8000775 -344.1528198 926.60855567 -341.04394531 904.43554688 C-340.67521424 901.79716866 -340.30660677 899.15877343 -339.9381485 896.52035713 C-339.14992996 890.87787096 -338.36063039 885.23553693 -337.57054901 879.59331131 C-336.39908818 871.22744157 -335.22949251 862.86131175 -334.06026688 854.49512936 C-332.09524709 840.43505322 -330.1289268 826.37515927 -328.16186523 812.31536865 C-325.21102017 791.22366802 -322.26249628 770.13164321 -319.31445312 749.03955078 C-319.06343678 747.24364507 -318.81242016 745.4477394 -318.56140327 743.65183377 C-317.55050372 736.41931668 -316.53960979 729.1867988 -315.52874279 721.95427716 C-314.12080562 711.88084497 -312.71275694 701.80742838 -311.30457443 691.73403049 C-301.43845252 621.15695722 -291.58931705 550.57752162 -281.748068 479.9969762 C-280.14578823 468.50563173 -278.54317184 457.01433425 -276.94030762 445.52307129 C-274.43904282 427.59094756 -271.93800527 409.65879216 -269.4375 391.7265625 C-269.33683357 391.00463919 -269.23616715 390.28271588 -269.13245022 389.53891611 C-263.6855296 350.47617985 -258.24775387 311.4121866 -252.82260466 272.34642041 C-251.62103267 263.69420741 -250.41892424 255.04206909 -249.21643066 246.38998413 C-249.05202311 245.20701701 -248.88761556 244.02404988 -248.71822596 242.80523527 C-248.06768808 238.12442686 -247.41714465 233.44361923 -246.76653385 228.76282096 C-244.92476284 215.51197514 -243.08517937 202.26083044 -241.24965572 189.00911772 C-240.1436867 181.02554845 -239.03534655 173.04231086 -237.92501926 165.05934656 C-237.17592936 159.67272362 -236.42970451 154.28571522 -235.6858182 148.89837134 C-235.24068222 145.68005091 -234.79264 142.46214056 -234.34367275 139.24435258 C-234.13905698 137.77357333 -233.93565668 136.3026244 -233.73355961 134.83149695 C-233.46139523 132.85151111 -233.18451716 130.87217484 -232.90734863 128.8928833 C-232.67888622 127.245063 -232.67888622 127.245063 -232.44580841 125.5639534 C-232 123 -232 123 -231 121 C-161.04 121 -91.08 121 -19 121 C-18.34 115.72 -17.68 110.44 -17 105 C-16.42674148 101.17548553 -15.83888676 97.36025997 -15.21240234 93.54492188 C-14.96324821 92.00522987 -14.96324821 92.00522987 -14.70906067 90.43443298 C-14.17075274 87.11208829 -13.62839733 83.79041906 -13.0859375 80.46875 C-12.70739864 78.13753295 -12.32911735 75.80627407 -11.95108032 73.47497559 C-10.96398511 67.39201748 -9.97343305 61.30962739 -8.9821167 55.22735596 C-7.96772689 48.99957156 -6.95666722 42.77124662 -5.9453125 36.54296875 C-3.96676815 24.36145256 -1.98425691 12.18058697 0 0 Z M-78 295 C-79.77176008 303.18185951 -80.99079951 311.41873461 -82.15478516 319.70532227 C-82.36173155 321.16331875 -82.5689275 322.62127982 -82.77635193 324.07920837 C-83.33457595 328.00794859 -83.88928808 331.93717722 -84.44329882 335.86651349 C-85.02454862 339.9849324 -85.60894566 344.10290476 -86.19296265 348.22093201 C-87.17154753 355.12431645 -88.14803241 362.02799518 -89.12304688 368.93188477 C-90.37596156 377.80347837 -91.63215635 386.6746042 -92.88944435 395.54557896 C-93.97051223 403.17322941 -95.05033005 410.80105673 -96.12981749 418.428931 C-96.36162019 420.06676532 -96.59346532 421.70459364 -96.82535219 423.34241605 C-97.48510593 428.00229942 -98.14420262 432.66227462 -98.80215645 437.32241249 C-99.00187534 438.73624759 -99.20183049 440.15004935 -99.40203285 441.56381607 C-99.67407642 443.48524709 -99.9451752 445.40681181 -100.21621704 447.3283844 C-100.36848063 448.40587731 -100.52074421 449.48337023 -100.67762184 450.59351444 C-101.02212936 452.76052721 -101.02212936 452.76052721 -101 454 C-79.1456493 454.07031134 -57.29131745 454.12309602 -35.4368763 454.15543652 C-25.28779426 454.17085683 -15.1387828 454.19185305 -4.98974609 454.22631836 C3.86377136 454.25636967 12.71723766 454.27561007 21.57080472 454.28226548 C26.251785 454.28615129 30.93261903 454.29518067 35.61355209 454.31719017 C40.03436041 454.3378049 44.45496453 454.34378429 48.87581635 454.33932304 C50.48404939 454.34013723 52.09229046 454.34595221 53.70048141 454.35761642 C82.69480848 454.5573006 110.08310926 446.55898892 132 427 C133.546875 425.824375 133.546875 425.824375 135.125 424.625 C139.6210767 420.51988649 143.2777093 415.80442775 147 411 C147.62261719 410.20464844 148.24523437 409.40929687 148.88671875 408.58984375 C162.17325924 390.70526453 167.17867739 370.30478058 164.5625 348.32421875 C161.45196081 332.40214629 152.09043145 317.56834227 139 308 C124.57991673 299.02708919 107.25310293 294.86767636 90.35632324 294.87974548 C89.63078263 294.87889106 88.90524201 294.87803663 88.15771532 294.87715632 C85.75029993 294.87552203 83.34295574 294.88098896 80.93554688 294.88647461 C79.20039878 294.88675695 77.46525057 294.88659783 75.73010254 294.8860321 C71.03650055 294.88574596 66.34292427 294.89161309 61.64932823 294.89860606 C56.73794054 294.90487009 51.82655221 294.90544581 46.91516113 294.90663147 C37.62227207 294.9097358 28.32939481 294.91793707 19.03651094 294.92798096 C8.45369888 294.93917 -2.12911376 294.94465958 -12.71193027 294.94967639 C-34.47462677 294.96012044 -56.23731264 294.97770248 -78 295 Z M-123 607 C-123.41856661 609.45489631 -123.77950204 611.89705939 -124.10731506 614.36462402 C-124.21434185 615.14473138 -124.32136864 615.92483874 -124.43163866 616.72858572 C-124.79188524 619.3621426 -125.1460301 621.99648484 -125.50024414 624.63085938 C-125.75618364 626.51118319 -126.01249412 628.39145654 -126.26914978 630.27168274 C-126.9671131 635.3929135 -127.65980326 640.51484541 -128.35155034 645.63691902 C-129.07464162 650.9847048 -129.80240426 656.33185475 -130.52964783 661.67907715 C-131.75049142 670.66051317 -132.9682451 679.64236358 -134.18383789 688.62451172 C-135.90046794 701.30883319 -137.62269424 713.99239017 -139.34602177 726.67580318 C-140.68099029 736.50247077 -142.01444354 746.32934407 -143.34765625 756.15625 C-143.49124549 757.21450422 -143.63483473 758.27275845 -143.78277516 759.36308098 C-144.60670066 765.4361025 -145.42986655 771.50922609 -146.25185585 777.58250999 C-146.50157445 779.42688733 -146.75151834 781.27123417 -147.00169754 783.11554909 C-147.34165115 785.62207327 -147.68077899 788.12870775 -148.01966858 790.63537598 C-148.17039238 791.74474022 -148.17039238 791.74474022 -148.32416111 792.87651587 C-148.79931745 795.92745558 -148.79931745 795.92745558 -149 799 C-126.86759756 799.04685843 -104.73520337 799.08205638 -82.60276127 799.10362434 C-72.32475685 799.11390785 -62.04678338 799.12791181 -51.76879883 799.15087891 C-42.80358989 799.17090282 -33.83840338 799.18373766 -24.8731727 799.18817699 C-20.13245676 799.19076922 -15.39180495 799.19680009 -10.6511097 799.21146011 C-6.17534256 799.22518677 -1.69966505 799.22919267 2.77612114 799.22621536 C4.40573109 799.22675886 6.03534452 799.23064544 7.66493607 799.23841095 C21.54350424 799.30121853 35.3779182 798.42409421 48.9375 795.25 C49.67508545 795.07863525 50.4126709 794.90727051 51.17260742 794.73071289 C72.22486006 789.660058 92.39069305 781.17102206 109 767 C109.99 766.17113281 110.98 765.34226562 112 764.48828125 C131.2026574 747.94798432 146.1390331 723.98231957 148.21923828 698.29248047 C149.17028772 675.69411323 144.3634519 656.79813145 129.3359375 639.48828125 C108.95547548 617.77865866 80.21228889 607.96668119 51 606 C45.33302459 605.85657121 39.66823437 605.86299724 33.99975586 605.87060547 C32.29549116 605.86924846 30.59122675 605.86746684 28.88696289 605.86529541 C24.28638759 605.86075991 19.68583486 605.86249376 15.0852592 605.8656745 C10.26643868 605.86821451 5.44762004 605.86585633 0.62879944 605.86428833 C-7.45181626 605.862473 -15.5324228 605.86485788 -23.61303711 605.86962891 C-32.96539828 605.87508689 -42.31773771 605.87329521 -51.67009836 605.8678025 C-59.70337201 605.86327297 -67.7366391 605.86261953 -75.76991361 605.86524117 C-80.56695535 605.8668027 -85.36398683 605.86700074 -90.16102791 605.86370468 C-94.66148786 605.86082775 -99.16191953 605.86279833 -103.6623764 605.86859894 C-105.31806071 605.86992679 -106.97374738 605.86953201 -108.62943077 605.86733627 C-110.87941578 605.86462615 -113.12930867 605.86800396 -115.37928772 605.87301636 C-117.27206499 605.8735819 -117.27206499 605.8735819 -119.20308018 605.87415886 C-121.90551042 605.68064055 -121.90551042 605.68064055 -123 607 Z " fill="#FFFFFF" transform="translate(350,0)"/>
<path d="M0 0 C0.89847656 0.70511719 1.79695313 1.41023438 2.72265625 2.13671875 C50.55668663 40.47276899 78.68080183 92.84113256 86.31689453 153.51806641 C87.16881684 161.52064965 87.22081609 169.54286047 87.24023438 177.58203125 C87.24975965 179.94048913 87.28079247 182.2980022 87.3125 184.65625 C87.37501282 193.95934239 86.7960267 203.08558955 85.73579407 212.32778931 C85.60318847 213.49881624 85.47058287 214.66984317 85.33395892 215.87635577 C83.84797722 228.72016117 82.03986934 241.51519547 80.18895185 254.31066942 C79.68473476 257.80317636 79.18559233 261.29640971 78.6856842 264.78953552 C77.71131457 271.59204128 76.73223956 278.39386112 75.75115033 285.1954007 C74.95197795 290.73589984 74.15420157 296.27659828 73.35735512 301.8174324 C71.08531032 317.61480923 68.80961756 333.41165426 66.5291818 349.20782201 C66.40700054 350.05415286 66.28481927 350.9004837 66.15893555 351.77246094 C66.03660009 352.61985429 65.91426464 353.46724765 65.78822205 354.34031959 C63.80648162 368.06904653 61.83358549 381.79902796 59.86468311 395.52960138 C57.83054501 409.71436311 55.78963648 423.89813697 53.74190408 438.08094275 C52.5973705 446.00905705 51.45546565 453.93752746 50.32091331 461.86707687 C49.3552386 468.61595878 48.38315329 475.3638817 47.40333744 482.11072563 C46.90598828 485.53658893 46.41123313 488.96276217 45.9246254 492.39016914 C42.12868038 519.04485244 37.32243553 545.34658256 29 571 C28.70931641 571.90202148 28.41863281 572.80404297 28.11914062 573.73339844 C17.07101748 607.40212692 -0.73251406 638.52220265 -23 666 C-23.43908691 666.54350098 -23.87817383 667.08700195 -24.33056641 667.64697266 C-31.59152326 676.53578504 -39.53829399 684.7434539 -47.625 692.875 C-48.10601166 693.36127869 -48.58702332 693.84755737 -49.08261108 694.34857178 C-55.70679572 701.02880862 -62.62601386 707.15534539 -70 713 C-71.09963277 713.90515623 -72.1976613 714.81227083 -73.29296875 715.72265625 C-89.35888729 728.70981577 -106.9653029 739.95152466 -125 750 C-125.64855957 750.36609375 -126.29711914 750.7321875 -126.96533203 751.109375 C-182.24424285 782.1431495 -246.24724701 797.60090931 -309 803 C-310.07475586 803.09571289 -311.14951172 803.19142578 -312.25683594 803.29003906 C-324.61293204 804.25921275 -336.98754901 804.24358816 -349.375 804.25 C-350.54951721 804.25067474 -351.72403442 804.25134949 -352.93414307 804.25204468 C-372.14154191 804.23457302 -390.94468197 803.53584052 -410 801 C-411.25151855 800.83902832 -412.50303711 800.67805664 -413.79248047 800.51220703 C-478.24098981 791.95578588 -544.49706437 768.67999696 -592.4375 723.41015625 C-594.59472292 721.38118286 -596.79251215 719.46178419 -599.0625 717.5625 C-614.18179344 704.34480841 -625.98154565 687.27112685 -636 670 C-636.62237549 668.92806396 -636.62237549 668.92806396 -637.25732422 667.83447266 C-656.83424487 633.59555991 -665.16676165 594.82047252 -665.1875 555.625 C-665.19974609 554.44550781 -665.21199219 553.26601563 -665.22460938 552.05078125 C-665.25754858 531.25516455 -662.2851984 510.67388854 -659.29035842 490.13893402 C-658.78182512 486.6418347 -658.28089868 483.14364375 -657.77891541 479.64559937 C-656.7989723 472.82526754 -655.81220716 466.00594042 -654.82291885 459.18695853 C-653.66579825 451.20954863 -652.51531173 443.23118593 -651.36493496 435.25280126 C-649.3085335 420.99253499 -647.2457216 406.73320341 -645.17944336 392.47436523 C-643.18475232 378.70952099 -641.19539615 364.94391898 -639.21166992 351.17749023 C-637.04098451 336.11367293 -634.86727921 321.05029703 -632.68848592 305.9876501 C-632.45504044 304.37374718 -632.22159628 302.75984408 -631.98815346 301.14594078 C-631.87335436 300.35230935 -631.75855527 299.55867792 -631.64027741 298.74099705 C-630.84050326 293.21071256 -630.04273858 287.68014044 -629.24574852 282.14945412 C-628.27069552 275.38369928 -627.29210433 268.6184663 -626.30934926 261.85382579 C-625.81022943 258.41769616 -625.31244302 254.98139072 -624.81887817 251.54445839 C-622.86923673 237.98989761 -620.80730514 224.46545002 -618.42866516 210.97880554 C-618.234385 209.86736956 -618.04010483 208.75593359 -617.83993739 207.61081773 C-605.60926539 139.74472007 -568.39301107 75.83294571 -516 31 C-515.08734375 30.19820313 -514.1746875 29.39640625 -513.234375 28.5703125 C-504.266318 20.75574512 -494.74638974 13.8082525 -485 7 C-484.36336426 6.55269531 -483.72672852 6.10539062 -483.07080078 5.64453125 C-472.14901669 -1.9869223 -460.65285344 -8.55735747 -449 -15 C-448.17822266 -15.46019531 -447.35644531 -15.92039063 -446.50976562 -16.39453125 C-374.24210463 -56.6786732 -287.19053263 -72.48130929 0 0 Z M-292 131 C-292.84401367 131.17160645 -293.68802734 131.34321289 -294.55761719 131.52001953 C-313.7416029 135.47049432 -331.79190286 141.62987031 -349 151 C-350.56621094 151.82951172 -350.56621094 151.82951172 -352.1640625 152.67578125 C-375.02739201 165.31395416 -394.05401869 185.03951193 -402.02866745 210.2522459 C-405.35101052 223.06358318 -407.13916265 236.09237589 -409.01506805 249.18053806 C-409.5216851 252.70230832 -410.03786694 256.2226794 -410.55270386 259.74325562 C-411.55661257 266.61920489 -412.55155456 273.49642173 -413.54295018 280.37418524 C-414.34977359 285.97088802 -415.15947123 291.56716781 -415.97115326 297.16316795 C-416.20601536 298.78253506 -416.44087697 300.40190225 -416.6757381 302.0212695 C-416.7926783 302.82756856 -416.9096185 303.63386762 -417.03010234 304.46459999 C-419.23503534 319.67073348 -421.42907392 334.87842418 -423.61986288 350.08660086 C-425.61893113 363.96133437 -427.63230537 377.83394792 -429.65236917 391.70563874 C-431.73293187 405.99376882 -433.80341198 420.28332783 -435.86329722 434.57445401 C-437.01737375 442.57993276 -438.1753574 450.58479763 -439.34403229 458.58815956 C-440.33876279 465.40100293 -441.32391447 472.21515059 -442.29718402 479.03109423 C-442.79275406 482.49981298 -443.29239746 485.96779918 -443.8040657 489.43418312 C-447.58824165 515.18221274 -451.0614654 539.56012103 -435 562 C-415.59911861 587.34643525 -384.49472843 598.25899637 -354 603 C-353.35724121 603.1023999 -352.71448242 603.2047998 -352.05224609 603.31030273 C-306.25368914 609.49194158 -252.49477922 600.13457671 -214.6875 572.625 C-196.73517029 558.43013465 -181.35815897 541.42335598 -175.51373291 518.70059204 C-175.30534231 517.89480607 -175.09695172 517.08902009 -174.88224626 516.25881636 C-172.0983399 504.95662933 -170.54754759 493.42501657 -168.88352537 481.91647553 C-168.38158496 478.46213305 -167.86698725 475.00967146 -167.35406494 471.5569458 C-166.35570224 464.8233726 -165.36857053 458.08820073 -164.38528129 451.35241179 C-163.23763109 443.49425566 -162.0779347 435.63789105 -160.91766623 427.78158982 C-158.84771405 413.76335588 -156.78753361 399.74370422 -154.73339844 385.72314453 C-152.74317621 372.13894287 -150.74751544 358.55555689 -148.74511719 344.97314453 C-148.559755 343.71580498 -148.559755 343.71580498 -148.37064812 342.43306462 C-147.87380741 339.06303255 -147.37694377 335.69300386 -146.88004611 332.32298019 C-144.73520807 317.77571894 -142.59411831 303.22790552 -140.45416796 288.67992455 C-140.22391728 287.11462399 -139.99365217 285.54932556 -139.76337278 283.98402923 C-138.33664745 274.28584412 -136.91185499 264.58737876 -135.4905014 254.88840485 C-135.09492306 252.18942049 -134.69863408 249.49054207 -134.30168152 246.79175949 C-133.75998557 243.10678275 -133.22026923 239.42152143 -132.68109131 235.73617554 C-132.44544673 234.13739533 -132.44544673 234.13739533 -132.20504165 232.50631654 C-128.68593144 208.38110036 -129.68228383 187.2904008 -144.69140625 166.96875 C-163.20283544 143.16386643 -195.08688018 132.56885869 -223.97940063 128.73751831 C-229.29612294 128.09484076 -234.53785296 127.82775985 -239.890625 127.796875 C-240.70917465 127.78986069 -241.5277243 127.78284637 -242.37107849 127.77561951 C-244.99744232 127.75821731 -247.62358063 127.75176738 -250.25 127.75 C-251.14772125 127.74932526 -252.0454425 127.74865051 -252.97036743 127.74795532 C-266.2114981 127.76378143 -279.01393183 128.20245484 -292 131 Z " fill="#FFFFFF" transform="translate(2092,179)"/>
<path d="M0 0 C1.58825571 1.4916871 3.17270651 2.98733179 4.75683594 4.48339844 C7.00435655 6.57804649 9.31776806 8.59658763 11.625 10.625 C15.17207953 13.80710672 18.36347485 17.10229221 21.4296875 20.74609375 C23.50573771 23.17409238 25.689328 25.48275637 27.875 27.8125 C34.51918563 35.09574471 40.37351471 42.96913944 46.25 50.875 C46.67071777 51.43268066 47.09143555 51.99036133 47.52490234 52.56494141 C48.5696096 53.95148794 49.59817606 55.35015818 50.625 56.75 C51.16898438 57.48992187 51.71296875 58.22984375 52.2734375 58.9921875 C52.59570312 59.61351562 52.91796875 60.23484375 53.25 60.875 C51.88176465 64.97970604 49.09264911 66.28318369 45.625 68.5625 C44.16337495 69.54455038 42.70248129 70.52768989 41.2421875 71.51171875 C40.44393555 72.04716309 39.64568359 72.58260742 38.82324219 73.13427734 C34.09750545 76.33109925 29.42790981 79.60878764 24.75 82.875 C17.64517992 87.82483364 10.52867685 92.75628442 3.38671875 97.65234375 C-2.51066835 101.70004121 -8.38054665 105.78693716 -14.25 109.875 C-21.35545183 114.82393338 -28.47131678 119.75628005 -35.61328125 124.65234375 C-42.51715589 129.39084834 -49.38417444 134.18220706 -56.25512695 138.96826172 C-62.41884995 143.25957098 -68.58964737 147.53980847 -74.79785156 151.76660156 C-78.58566427 154.35392676 -82.32142448 157.00250824 -86.03515625 159.6953125 C-86.94177002 160.34677246 -87.84838379 160.99823242 -88.7824707 161.66943359 C-90.56332528 162.95095773 -92.33693163 164.24262869 -94.10229492 165.54541016 C-94.90900635 166.12339355 -95.71571777 166.70137695 -96.546875 167.296875 C-97.26198242 167.81862305 -97.97708984 168.34037109 -98.71386719 168.87792969 C-100.75 169.875 -100.75 169.875 -102.88232422 169.65478516 C-105.62039293 168.51159673 -107.11789778 166.67150649 -109.125 164.5 C-142.58536133 130.10882335 -193.34327236 111.32880631 -240.75 109.875 C-241.86117187 109.83503906 -242.97234375 109.79507813 -244.1171875 109.75390625 C-273.91107936 109.20928672 -307.20569611 114.40877285 -329.57421875 135.70703125 C-330.29222656 136.42246094 -331.01023437 137.13789063 -331.75 137.875 C-332.31332031 138.41511719 -332.87664063 138.95523438 -333.45703125 139.51171875 C-343.62322336 150.16073792 -347.59499489 165.26220399 -348.0625 179.625 C-347.99036483 181.0436584 -347.88455567 182.46089608 -347.75 183.875 C-347.69199219 184.74769531 -347.63398438 185.62039063 -347.57421875 186.51953125 C-345.95811028 201.06450745 -337.93029892 214.02663578 -326.87109375 223.28515625 C-299.3005792 244.88177964 -262.14565171 251.74406848 -228.68173218 258.61080933 C-169.60937936 270.74822494 -107.61638916 287.44892648 -59.75 325.875 C-59.24339844 326.28008789 -58.73679687 326.68517578 -58.21484375 327.10253906 C-17.26329923 360.08010348 5.42837502 404.98230598 11.30249023 457.08129883 C18.84889693 534.53648339 -2.70986351 618.04336572 -51.75 678.875 C-52.51828125 679.84824219 -53.2865625 680.82148437 -54.078125 681.82421875 C-60.05652482 689.16561852 -66.57898068 695.90995723 -73.25 702.625 C-74.1160083 703.50027344 -74.9820166 704.37554688 -75.87426758 705.27734375 C-81.85657368 711.23094018 -88.12262582 716.65270035 -94.75 721.875 C-95.42998047 722.41431152 -96.10996094 722.95362305 -96.81054688 723.50927734 C-138.42770321 756.15342246 -188.31551475 776.69359016 -239.75 787.875 C-240.81412109 788.10767578 -241.87824219 788.34035156 -242.97460938 788.58007812 C-260.74978745 792.39137165 -278.69156957 794.8780967 -296.75 796.875 C-297.80010254 796.99504395 -298.85020508 797.11508789 -299.93212891 797.23876953 C-333.37935969 800.89936191 -369.5216388 801.41717649 -402.75 795.875 C-403.98476074 795.67100586 -405.21952148 795.46701172 -406.49169922 795.25683594 C-470.82871963 784.30687111 -533.73668325 758.34604497 -583.75 715.875 C-584.76449219 715.04484375 -585.77898438 714.2146875 -586.82421875 713.359375 C-601.35527802 701.3549898 -615.38777528 687.94860834 -626.75 672.875 C-627.81632922 671.50023128 -628.88417286 670.12663651 -629.953125 668.75390625 C-645.75 648.3905733 -645.75 648.3905733 -645.75 643.875 C-643.80078125 642 -643.80078125 642 -641.0625 639.875 C-640.05960938 639.08222656 -639.05671875 638.28945313 -638.0234375 637.47265625 C-637.2205127 636.84061279 -637.2205127 636.84061279 -636.40136719 636.19580078 C-633.61061395 633.9636933 -630.90353435 631.63443362 -628.1875 629.3125 C-623.63459773 625.43836985 -619.01500022 621.66873405 -614.328125 617.95703125 C-611.34032832 615.54415908 -608.41943803 613.05703921 -605.5 610.5625 C-601.04360367 606.75755447 -596.50821394 603.0871094 -591.875 599.5 C-586.13126264 595.04585333 -580.62265247 590.36570264 -575.15380859 585.57958984 C-569.78589278 580.8849428 -564.29737385 576.35621191 -558.75 571.875 C-552.92564054 567.14377545 -547.14525844 562.37080348 -541.4375 557.5 C-537.00138512 553.7171847 -532.48399975 550.06967742 -527.875 546.5 C-522.80097266 542.56504002 -517.8973505 538.47519887 -513.0625 534.25 C-504.11398741 526.43808121 -504.11398741 526.43808121 -499.5625 522.625 C-498.30373047 521.56539062 -498.30373047 521.56539062 -497.01953125 520.484375 C-494.84223081 518.94040291 -493.35991517 518.28298674 -490.75 517.875 C-490.31171875 518.51824219 -489.8734375 519.16148437 -489.421875 519.82421875 C-460.08926488 561.61722626 -411.81006198 585.14407862 -362.75 594.875 C-361.95674316 595.03871094 -361.16348633 595.20242188 -360.34619141 595.37109375 C-320.16929175 603.31943605 -271.0643682 599.91406973 -235.75 577.875 C-232.25543628 575.37739948 -228.98191413 572.70225042 -225.75 569.875 C-225.05003906 569.28203125 -224.35007812 568.6890625 -223.62890625 568.078125 C-213.42823838 558.77225255 -206.36870679 544.41528109 -205.375 530.66796875 C-204.82929601 517.79535443 -208.00773759 508.23206344 -215.75 497.875 C-216.45125 496.885 -217.1525 495.895 -217.875 494.875 C-243.58168368 465.63364731 -293.16055198 458.64048234 -329.10351562 452.50195312 C-388.56198653 442.27904517 -445.45723783 421.26548558 -490.05078125 379.38671875 C-492.23804586 377.35139148 -494.45817803 375.41378948 -496.75 373.5 C-515.70385195 356.98419539 -530.12320041 334.94666602 -541.75 312.875 C-542.08741211 312.23965332 -542.42482422 311.60430664 -542.77246094 310.94970703 C-572.43450042 254.21563054 -571.28188132 185.72757586 -552.68261719 125.80957031 C-541.95529274 92.0550049 -525.79619139 60.8378071 -502.75 33.875 C-502.10160156 33.11445313 -501.45320313 32.35390625 -500.78515625 31.5703125 C-489.77085612 19.01274191 -477.96582503 7.07248463 -464.49462891 -2.83789062 C-462.67369199 -4.18129664 -460.87359299 -5.5497516 -459.07421875 -6.921875 C-387.36646236 -61.15612465 -289.72516131 -77.17171787 0 0 Z " fill="#FFFFFF" transform="translate(2825.75,184.125)"/>
<path d="M0 0 C1.7447046 0.00169319 3.48941348 0.00074098 5.2341156 -0.00265503 C9.96332397 -0.00437534 14.69161779 0.03088026 19.42061377 0.07278872 C24.36533302 0.11031684 29.31007364 0.11382272 34.25491333 0.12094116 C43.61535571 0.13958388 52.97537723 0.1888132 62.33563435 0.2490381 C72.99331046 0.31612104 83.65100676 0.34909674 94.30884147 0.37921071 C116.2297294 0.44191269 138.15023857 0.54743665 160.07080078 0.68115234 C158.0503457 17.22757384 155.85633884 33.74408115 153.546875 50.25244141 C153.20215394 52.72582938 152.85758419 55.19923845 152.51315117 57.67266655 C151.77386827 62.97918384 151.03356903 68.28555776 150.29232025 73.59180069 C149.20139145 81.40132113 148.11248923 89.21112322 147.0240218 97.02098705 C145.217165 109.98505353 143.40885943 122.94891749 141.59967041 135.91265869 C138.94111267 154.96270323 136.28472612 174.01305016 133.62890625 193.06347656 C133.4068366 194.65638916 133.18476694 196.24930175 132.96269727 197.84221435 C132.07489477 204.21047448 131.18710067 210.57873579 130.29934037 216.94700181 C129.19038868 224.90193266 128.08136208 232.85685305 126.97215652 240.8117485 C121.2909531 281.55576039 115.61733691 322.30080762 109.96142578 363.04833984 C109.81092412 364.13254589 109.66042245 365.21675194 109.50536013 366.33381271 C106.74028746 386.25327147 103.97655678 406.17291612 101.21511602 426.0928787 C100.2357015 433.1577966 99.25578017 440.22264409 98.27547884 447.28743899 C97.61825353 452.02422833 96.96174953 456.76111679 96.30588377 461.49809456 C95.91498153 464.32019898 95.52341063 467.1422103 95.13164353 469.96419477 C94.8699541 471.85069775 94.60908611 473.73731463 94.34824944 475.6239357 C94.19297342 476.74143078 94.03769741 477.85892586 93.87771606 479.01028442 C93.74493319 479.96846636 93.61215031 480.92664829 93.4753437 481.91386604 C93.04722374 484.84243167 92.55737133 487.76172904 92.07080078 490.68115234 C113.19080078 490.68115234 134.31080078 490.68115234 156.07080078 490.68115234 C154.94577641 504.18144475 154.94577641 504.18144475 154.08410645 510.13354492 C153.9430006 511.11861841 153.9430006 511.11861841 153.79904413 512.12359238 C153.4900234 514.27479378 153.17596035 516.4252249 152.86181641 518.57568359 C152.63639076 520.13740244 152.41127661 521.69916628 152.18644714 523.26097107 C151.58025156 527.46542251 150.96959442 531.66921445 150.35796928 535.87287903 C149.71679992 540.2842152 149.07942687 544.69610005 148.44152832 549.10791016 C147.37137416 556.50524358 146.29840663 563.90216457 145.22363281 571.29882812 C143.98133103 579.84860358 142.74303539 588.39895176 141.5069623 596.94962978 C140.31559361 605.1906956 139.12187779 613.43141961 137.92692566 621.67196655 C137.41908937 625.17416675 136.91199186 628.67647273 136.4054718 632.17886353 C135.80985662 636.29632785 135.21216113 640.41348499 134.61284828 644.53041267 C134.39324404 646.04121759 134.17433932 647.55212437 133.95618248 649.06313896 C133.65852837 651.12391843 133.35834005 653.1843132 133.05749512 655.24462891 C132.89010582 656.39787659 132.72271652 657.55112427 132.55025482 658.73931885 C132.07080078 661.68115234 132.07080078 661.68115234 131.07080078 665.68115234 C109.62080078 665.68115234 88.17080078 665.68115234 66.07080078 665.68115234 C65.74080078 669.97115234 65.41080078 674.26115234 65.07080078 678.68115234 C64.77072072 681.29965685 64.44578709 683.91556672 64.08410645 686.52627563 C63.99003588 687.21313615 63.89596532 687.89999667 63.79904413 688.60767114 C63.49032393 690.85485961 63.17611836 693.10124228 62.86181641 695.34765625 C62.63636565 696.98010818 62.41125231 698.61260674 62.18644714 700.24514771 C61.58057049 704.63750775 60.9698183 709.02917661 60.35796928 713.42070818 C59.71666052 718.02869216 59.07939167 722.63723509 58.44152832 727.24569702 C57.37164355 734.97082181 56.29860869 742.69550399 55.22363281 750.41992188 C53.98063453 759.35195264 52.74249999 768.2846474 51.5069623 777.217713 C50.31629021 785.82568314 49.12238126 794.43320124 47.92692566 803.04050827 C47.41874115 806.69979229 46.91166544 810.35922745 46.4054718 814.01878738 C45.81056175 818.31856164 45.2128149 822.61793212 44.61284828 826.91700363 C44.39296132 828.49592198 44.17405287 830.07497694 43.95618248 831.6541748 C43.65926686 833.80511705 43.35884202 835.95554026 43.05749512 838.10586548 C42.80641117 839.91260207 42.80641117 839.91260207 42.55025482 841.75583839 C42.07080078 844.68115234 42.07080078 844.68115234 41.07080078 847.68115234 C-26.90919922 847.68115234 -94.88919922 847.68115234 -164.92919922 847.68115234 C-156.8597135 786.58361761 -156.8597135 786.58361761 -153.56201172 762.81005859 C-153.19315125 760.1425077 -152.82440316 757.47494147 -152.45578003 754.80735779 C-151.70257134 749.3584805 -150.94817346 743.90976909 -150.19287109 738.46118164 C-149.32384079 732.19211272 -148.45662378 725.92279486 -147.59031403 719.65334946 C-146.74055415 713.50380762 -145.88984275 707.35439783 -145.03860092 701.20506096 C-144.68196246 698.62829323 -144.32552665 696.05149744 -143.96930313 693.47467232 C-143.47777155 689.92041648 -142.98514271 686.36631449 -142.4921875 682.81225586 C-142.34781754 681.76695206 -142.20344757 680.72164825 -142.05470276 679.64466858 C-141.92040359 678.67807312 -141.78610443 677.71147766 -141.6477356 676.71559143 C-141.53238527 675.88291528 -141.41703495 675.05023912 -141.29818916 674.19233036 C-140.88029955 671.34836342 -140.40948903 668.51518714 -139.92919922 665.68115234 C-140.50403854 665.68950619 -141.07887786 665.69786004 -141.67113656 665.70646703 C-175.77453002 666.19926161 -209.8771115 666.57648808 -243.98329199 666.80458959 C-248.08237317 666.83210368 -252.18144715 666.86057891 -256.28051758 666.88964844 C-257.09653599 666.89541927 -257.9125544 666.9011901 -258.75330064 666.9071358 C-271.95028944 667.00275398 -285.14516046 667.17614332 -298.34089466 667.37851386 C-311.89080379 667.58457592 -325.43960752 667.70651105 -338.99101907 667.75109923 C-347.34810101 667.78122649 -355.69919823 667.87616973 -364.05443595 668.05531462 C-369.79168258 668.17202694 -375.52585785 668.20667077 -381.26420411 668.17818265 C-384.57366886 668.16413564 -387.87059364 668.197066 -391.17866516 668.30367279 C-410.44343704 668.8938753 -410.44343704 668.8938753 -416.20958161 663.57939196 C-420.29300953 658.36663222 -423.0334429 652.66705222 -425.61031497 646.59897828 C-427.81295056 641.72599018 -430.63199514 637.23034973 -433.42919922 632.68115234 C-434.51774089 630.83870443 -435.60628255 628.99625651 -436.69482422 627.15380859 C-438.80802864 623.57747015 -440.9226769 620.00199192 -443.03857422 616.42724609 C-447.70753278 608.53642881 -452.37094149 600.64262597 -456.99951172 592.72802734 C-465.73610184 577.79068206 -474.54499128 562.90242594 -483.48144531 548.08349609 C-483.9592041 547.29072266 -484.43696289 546.49794922 -484.92919922 545.68115234 C-485.77816772 544.36606689 -485.77816772 544.36606689 -486.64428711 543.02441406 C-487.92919922 540.68115234 -487.92919922 540.68115234 -487.46435547 538.25146484 C-485.49256831 534.95010109 -483.03104996 532.29634475 -480.36669922 529.55615234 C-476.55823872 525.54318024 -472.88619502 521.50715443 -469.42919922 517.18115234 C-465.60925911 512.42006757 -461.53981103 507.96842209 -457.37060547 503.51708984 C-454.25351368 500.16998365 -451.29338809 496.75101094 -448.42919922 493.18115234 C-444.60925911 488.42006757 -440.53981103 483.96842209 -436.37060547 479.51708984 C-433.25351368 476.16998365 -430.29338809 472.75101094 -427.42919922 469.18115234 C-423.60925911 464.42006757 -419.53981103 459.96842209 -415.37060547 455.51708984 C-412.25351368 452.16998365 -409.29338809 448.75101094 -406.42919922 445.18115234 C-402.60925911 440.42006757 -398.53981103 435.96842209 -394.37060547 431.51708984 C-391.25351368 428.16998365 -388.29338809 424.75101094 -385.42919922 421.18115234 C-381.60925911 416.42006757 -377.53981103 411.96842209 -373.37060547 407.51708984 C-370.25351368 404.16998365 -367.29338809 400.75101094 -364.42919922 397.18115234 C-360.60925911 392.42006757 -356.53981103 387.96842209 -352.37060547 383.51708984 C-349.25351368 380.16998365 -346.29338809 376.75101094 -343.42919922 373.18115234 C-339.60925911 368.42006757 -335.53981103 363.96842209 -331.37060547 359.51708984 C-328.25351368 356.16998365 -325.29338809 352.75101094 -322.42919922 349.18115234 C-318.60925911 344.42006757 -314.53981103 339.96842209 -310.37060547 335.51708984 C-307.25351368 332.16998365 -304.29338809 328.75101094 -301.42919922 325.18115234 C-297.60925911 320.42006757 -293.53981103 315.96842209 -289.37060547 311.51708984 C-286.25351368 308.16998365 -283.29338809 304.75101094 -280.42919922 301.18115234 C-276.60925911 296.42006757 -272.53981103 291.96842209 -268.37060547 287.51708984 C-265.25351368 284.16998365 -262.29338809 280.75101094 -259.42919922 277.18115234 C-255.60925911 272.42006757 -251.53981103 267.96842209 -247.37060547 263.51708984 C-244.25351368 260.16998365 -241.29338809 256.75101094 -238.42919922 253.18115234 C-234.60925911 248.42006757 -230.53981103 243.96842209 -226.37060547 239.51708984 C-223.25351368 236.16998365 -220.29338809 232.75101094 -217.42919922 229.18115234 C-213.60925911 224.42006757 -209.53981103 219.96842209 -205.37060547 215.51708984 C-202.25351368 212.16998365 -199.29338809 208.75101094 -196.42919922 205.18115234 C-192.60925911 200.42006757 -188.53981103 195.96842209 -184.37060547 191.51708984 C-181.25351368 188.16998365 -178.29338809 184.75101094 -175.42919922 181.18115234 C-171.60925911 176.42006757 -167.53981103 171.96842209 -163.37060547 167.51708984 C-160.25351368 164.16998365 -157.29338809 160.75101094 -154.42919922 157.18115234 C-150.60925911 152.42006757 -146.53981103 147.96842209 -142.37060547 143.51708984 C-139.25351368 140.16998365 -136.29338809 136.75101094 -133.42919922 133.18115234 C-129.60925911 128.42006757 -125.53981103 123.96842209 -121.37060547 119.51708984 C-118.25351368 116.16998365 -115.29338809 112.75101094 -112.42919922 109.18115234 C-108.60861432 104.41926392 -104.53852119 99.9667964 -100.3684082 95.51489258 C-97.27139838 92.18960435 -94.33298238 88.79395295 -91.49169922 85.24365234 C-87.46473178 80.22273286 -83.13705218 75.55693418 -78.72851562 70.875 C-74.68651335 66.55888357 -70.93324505 62.07611603 -67.23779297 57.45849609 C-64.57640464 54.25672435 -61.77457676 51.21880317 -58.92919922 48.18115234 C-55.28031473 44.28538953 -51.77221484 40.3478095 -48.42919922 36.18115234 C-44.6135402 31.42540343 -40.55012337 26.97721882 -36.38378906 22.5324707 C-32.39844568 18.25553239 -28.68205607 13.80879623 -25.06201172 9.21630859 C-24.35818359 8.37970703 -23.65435547 7.54310547 -22.92919922 6.68115234 C-21.90196243 5.1387941 -21.90196243 5.1387941 -20.85397339 3.5652771 C-15.59385812 -1.58068543 -6.84830105 -0.09267098 0 0 Z M-68.92919922 280.68115234 C-77.27709918 290.34872876 -77.27709918 290.34872876 -85.42919922 300.18115234 C-89.8186574 305.58478136 -94.34602731 310.8615369 -98.88623047 316.13818359 C-103.14271846 321.0867395 -107.35086928 326.07593774 -111.56152344 331.06347656 C-112.95379339 332.71024213 -114.34925394 334.35425302 -115.74560547 335.99755859 C-119.97773555 340.98141482 -124.1865732 345.97674506 -128.30419922 351.05615234 C-132.47076345 356.17848758 -136.79121203 361.15532612 -141.12963867 366.1315918 C-145.05409019 370.64330597 -148.86346705 375.23440789 -152.62841797 379.88037109 C-156.30926335 384.36112855 -160.10433115 388.74274421 -163.88623047 393.13818359 C-166.77150497 396.49257863 -169.63598984 399.86407223 -172.49169922 403.24365234 C-172.9414209 403.77587402 -173.39114258 404.3080957 -173.85449219 404.85644531 C-174.75988363 405.92828574 -175.66515739 407.0002256 -176.5703125 408.07226562 C-178.39629695 410.23418397 -180.22430246 412.39438814 -182.05249023 414.55444336 C-182.96851801 415.63681489 -183.88437158 416.71933387 -184.80004883 417.80200195 C-187.11376709 420.53751967 -189.42963817 423.27116446 -191.74951172 426.00146484 C-195.97999546 430.98429581 -200.18773602 435.97817949 -204.30419922 441.05615234 C-208.47076345 446.17848758 -212.79121203 451.15532612 -217.12963867 456.1315918 C-221.04690261 460.63504282 -224.8516464 465.21556485 -228.60498047 469.85693359 C-231.89105471 473.84992801 -235.27642633 477.75624552 -238.68139648 481.64819336 C-239.39960571 482.47661743 -239.39960571 482.47661743 -240.13232422 483.32177734 C-240.76122559 484.04155762 -240.76122559 484.04155762 -241.40283203 484.77587891 C-243.70383278 487.64808138 -245.79010435 490.68641953 -247.92919922 493.68115234 C-199.08919922 493.68115234 -150.24919922 493.68115234 -99.92919922 493.68115234 C-95.76480736 468.75950831 -95.76480736 468.75950831 -91.8671875 443.79956055 C-91.59899663 442.02660001 -91.33062359 440.25366702 -91.06208801 438.48075867 C-90.35145773 433.78448725 -89.64380811 429.08777226 -88.93721247 424.39089227 C-88.49422917 421.44682575 -88.05067488 418.50284577 -87.6069603 415.55888939 C-86.21390578 406.3152779 -84.82268334 397.07139367 -83.43430817 387.82707816 C-81.83912069 377.2057788 -80.23762774 366.58545446 -78.63090527 355.96589404 C-77.38082891 347.70109057 -76.13615677 339.43548472 -74.89564884 331.1692397 C-74.15748245 326.25118783 -73.4170324 321.33350593 -72.67093277 316.41665077 C-71.97357321 311.81999403 -71.28289864 307.22238331 -70.59746361 302.62393379 C-70.34474112 300.93644682 -70.08957902 299.24932321 -69.83183861 297.56259537 C-69.48146235 295.26716465 -69.13978016 292.97060519 -68.80032349 290.67353821 C-68.6067885 289.38788625 -68.41325352 288.10223429 -68.21385384 286.77762318 C-67.71706549 283.64797849 -67.71706549 283.64797849 -68.92919922 280.68115234 Z " fill="#FFFFFF" transform="translate(1201.92919921875,121.31884765625)"/>
<path d="M0 0 C12.54 0 25.08 0 38 0 C38 106.92 38 213.84 38 324 C25.46 324 12.92 324 0 324 C-0.33 303.21 -0.66 282.42 -1 261 C-2.98 266.28 -4.96 271.56 -7 277 C-12.12369889 287.45049937 -18.78468835 295.85520605 -27 304 C-27.76699219 304.80050781 -28.53398437 305.60101562 -29.32421875 306.42578125 C-47.70452749 324.49403042 -74.38821977 329.38358268 -99.18237305 329.30273438 C-125.11628912 328.84526391 -148.76109316 321.54335752 -169 305 C-170.18529297 304.06220703 -170.18529297 304.06220703 -171.39453125 303.10546875 C-193.9210019 284.36628563 -205.00836228 254.22776753 -207.6875 225.78125 C-210.61270945 187.02222482 -203.80639356 150.13362533 -178 120 C-164.2337751 104.04737467 -144.41051026 94.17722702 -124 90 C-123.14124268 89.82412354 -122.28248535 89.64824707 -121.39770508 89.46704102 C-113.34516128 87.95748271 -105.49315822 87.65098386 -97.3125 87.6875 C-96.65425232 87.68965515 -95.99600464 87.6918103 -95.31781006 87.69403076 C-67.72096354 87.83874461 -43.99803928 95.55826375 -23.8515625 115.08203125 C-13.03967695 126.59903977 -6.49188229 140.35498055 -1 155 C-0.67 103.85 -0.34 52.7 0 0 Z M-148.95703125 147.89453125 C-165.57905449 165.7172424 -170.73521588 189.22789815 -170.25 212.9296875 C-169.37537801 235.97597682 -160.96444435 257.11159573 -144 273 C-123.20089191 291.12613034 -98.57180344 294.17061948 -72 293 C-50.3724235 291.08374099 -31.70845088 280.13097295 -17.4921875 264.1875 C-1.65766693 244.43460654 1.48380791 219.73091619 -0.2734375 195.1796875 C-2.78752945 174.35541642 -12.1304805 154.81642158 -28.21484375 141.09375 C-63.77393376 114.36209188 -116.99799422 116.95614211 -148.95703125 147.89453125 Z " fill="#FFFFFF" transform="translate(3183,644)"/>
<path d="M0 0 C0.73604462 -0.00067474 1.47208923 -0.00134949 2.23043823 -0.00204468 C19.75373006 0.02345536 35.70848723 2.20654254 52.1875 8.25 C53.95867188 8.89582031 53.95867188 8.89582031 55.765625 9.5546875 C82.12325152 20.01500116 102.89319188 41.40596645 114.33789062 67.16308594 C115.95664916 71.13927787 117.24921423 75.20798347 118.5 79.3125 C118.86363647 80.49767212 118.86363647 80.49767212 119.23461914 81.70678711 C122.57600354 93.26530969 123.49994758 104.71043051 123.39331055 116.68286133 C123.3747513 118.84142594 123.37280376 120.99956602 123.37304688 123.15820312 C123.33588368 133.65646528 123.33588368 133.65646528 122.1875 138.25 C54.5375 138.25 -13.1125 138.25 -82.8125 138.25 C-74.42852803 164.79924459 -65.88343095 182.82126053 -41 196.0625 C-18.68670881 206.73622753 9.14976912 207.60342686 32.55078125 200.18359375 C44.27575944 196.00889529 59.71690804 189.0828289 65.62792969 177.40405273 C67.45662771 173.81446438 68.98920185 171.7402899 72.1875 169.25 C79.27331893 167.36808367 86.94503054 168.22171229 94.1875 168.5625 C96.2225244 168.61772388 98.25769227 168.66790581 100.29296875 168.71289062 C105.26137158 168.83365472 110.22285564 169.02315179 115.1875 169.25 C114.7274567 170.67626534 114.26336452 172.10122506 113.79760742 173.52563477 C113.53960861 174.31929947 113.2816098 175.11296417 113.01579285 175.93067932 C109.50964869 185.74830924 102.89842926 194.42287922 96.1875 202.25 C95.69378906 202.8996875 95.20007812 203.549375 94.69140625 204.21875 C77.62280417 225.85375731 47.81501124 236.9087459 21.39501953 240.47680664 C-13.98229273 244.53079565 -51.69978695 239.03630369 -80.2265625 216.53222656 C-104.43381506 196.96072249 -117.93073011 170.00701862 -121.60977173 139.33148193 C-123.30263752 121.95023793 -123.37410631 102.14529727 -118.8125 85.25 C-118.61914062 84.52538574 -118.42578125 83.80077148 -118.2265625 83.05419922 C-110.42653028 54.98973144 -93.21775654 30.88008547 -67.86474609 16.11572266 C-46.63578148 4.3509669 -24.08485122 0.01979586 0 0 Z M-65 62.4375 C-74.67576293 73.87790002 -80.36235612 87.54913673 -82.8125 102.25 C-27.7025 102.25 27.4075 102.25 84.1875 102.25 C81.79343761 90.36063024 81.79343761 90.36063024 77.5 79.5 C76.97998413 78.42806396 76.97998413 78.42806396 76.44946289 77.33447266 C73.42647612 71.31577623 69.77378907 66.19268782 65.1875 61.25 C64.41212891 60.33927734 64.41212891 60.33927734 63.62109375 59.41015625 C49.79425179 44.12785724 27.67403721 36.57007168 7.5703125 35.33984375 C6.78398437 35.31019531 5.99765625 35.28054688 5.1875 35.25 C4.50429687 35.21003906 3.82109375 35.17007813 3.1171875 35.12890625 C-22.85496457 34.2895021 -46.99757054 43.55946599 -65 62.4375 Z " fill="#FFFFFF" transform="translate(3392.8125,731.75)"/>
<path d="M0 0 C13.2 0 26.4 0 40 0 C48.66709056 16.2591643 56.92252934 32.71204055 65.14897585 49.19655776 C67.08266378 53.07027307 69.01868513 56.9428219 70.95443726 60.81550598 C74.60356301 68.11684007 78.25065215 75.41918941 81.89697206 82.72192508 C86.05512736 91.0494934 90.21561063 99.37589791 94.37626958 107.70221555 C102.9200657 124.80020244 111.46100311 141.89961584 120 159 C122.60813504 155.76804356 124.42622102 152.39165553 126.2772522 148.67927551 C126.59354344 148.04769632 126.90983468 147.41611712 127.2357105 146.76539916 C128.29197137 144.65382817 129.34249374 142.53945491 130.39306641 140.42504883 C131.15014768 138.90868458 131.90758772 137.3924994 132.6653595 135.8764801 C134.29481477 132.61463811 135.92173835 129.35155035 137.54671097 126.08747292 C140.11396654 120.93070177 142.68688522 115.77676963 145.2605896 110.62321472 C149.328089 102.47683822 153.39184423 94.32860068 157.45397508 86.17954606 C164.73573162 71.57167269 172.02198937 56.96604598 179.31238496 42.36248225 C181.87241013 37.23400307 184.43018415 32.10440915 186.98617959 26.97392046 C188.57253662 23.79059814 190.16049456 20.60807639 191.74886131 17.42575645 C192.48770438 15.94458655 193.22584939 14.46306822 193.96326256 12.98118591 C194.9659283 10.96646851 195.97100858 8.95297436 196.97671509 6.93977356 C197.53972132 5.81024167 198.10272755 4.68070978 198.68279457 3.51694965 C200 1 200 1 201 0 C203.95705321 -0.08868299 206.89065056 -0.11520296 209.84765625 -0.09765625 C211.17729652 -0.09553383 211.17729652 -0.09553383 212.53379822 -0.09336853 C215.37673254 -0.08775215 218.21958931 -0.07519691 221.0625 -0.0625 C222.98502491 -0.05748711 224.90755104 -0.05292384 226.83007812 -0.04882812 C231.55341549 -0.03777741 236.27669458 -0.02050183 241 0 C240.42365894 3.40687152 239.58242 6.21057862 238.03968906 9.29814529 C237.62789074 10.12956519 237.21609241 10.96098509 236.79181534 11.81759953 C236.33696052 12.72061701 235.8821057 13.62363448 235.41346741 14.55401611 C234.93216494 15.52130103 234.45086246 16.48858594 233.95497507 17.48518252 C232.33775283 20.73161067 230.71196884 23.97367399 229.08618164 27.21582031 C227.9262338 29.5397801 226.76679685 31.86399495 225.60783386 34.18844604 C222.78427254 39.84891036 219.95423065 45.50611052 217.1218539 51.16216806 C214.82095759 55.75718813 212.52240394 60.35337284 210.22552299 64.95040131 C209.8987433 65.60442039 209.57196361 66.25843947 209.23528151 66.93227731 C208.57148313 68.26083322 207.90769015 69.58939183 207.2439025 70.9179531 C201.01944724 83.37541831 194.78764054 95.82919455 188.55331682 108.28172335 C183.20013836 118.97466825 177.85327016 129.67074876 172.51098633 140.36914062 C166.30978198 152.78758859 160.10470477 165.20408854 153.89339536 177.61748576 C153.23168946 178.9399419 152.56998857 180.26240056 151.90829277 181.58486176 C151.58270417 182.23557613 151.25711557 182.8862905 150.92166065 183.55672349 C148.62356072 188.15032916 146.32825515 192.74532466 144.03401375 197.34085846 C140.94943397 203.51928929 137.85853673 209.69452373 134.76329231 215.86761856 C133.62518066 218.13985894 132.48913402 220.41313492 131.35525131 222.68748856 C129.81351467 225.77909553 128.26451624 228.86695096 126.71351624 231.95391846 C126.26089214 232.86585881 125.80826804 233.77779917 125.34192806 234.71737409 C124.92752199 235.538363 124.51311591 236.35935191 124.08615208 237.20521927 C123.55042036 238.27595212 123.55042036 238.27595212 123.00386578 239.36831594 C122 241 122 241 120 242 C104.70803237 211.46180161 89.42025543 180.92150943 74.13812757 150.37838579 C72.33560502 146.77584224 70.53304765 143.17331613 68.73046875 139.57080078 C68.37159498 138.85357786 68.0127212 138.13635493 67.64297247 137.39739798 C61.82532657 125.7708185 56.00485736 114.1456546 50.18335104 102.52100767 C44.21393143 90.60084451 38.24753099 78.67917382 32.28395462 66.75608623 C28.60140436 59.39373555 24.91647937 52.03258337 21.2285471 44.67292713 C18.70284646 39.63206444 16.18006908 34.5897459 13.65962505 29.54625286 C12.20346525 26.63264707 10.74555765 23.7199389 9.28504944 20.80850983 C7.70491305 17.65810703 6.12965729 14.50531254 4.55566406 11.35183716 C3.85529337 9.9598343 3.85529337 9.9598343 3.14077377 8.53971016 C2.7227663 7.69971313 2.30475883 6.85971609 1.87408447 5.9942646 C1.50955296 5.26596101 1.14502144 4.53765742 0.76944351 3.78728402 C0 2 0 2 0 0 Z " fill="#FFFFFF" transform="translate(3532,736)"/>
<path d="M0 0 C5.00942708 3.96579644 9.52723303 8.52689678 10.3359375 15.109375 C10.43262368 22.57354787 9.85384146 28.34598393 4.5390625 33.90234375 C-1.45619016 39.15199392 -5.98790978 39.83223494 -13.8046875 39.68359375 C-19.72430868 39.11189439 -23.14624457 36.4588212 -27.3125 32.3125 C-31.2748304 27.36224271 -32.28616808 21.37437339 -31.83984375 15.13671875 C-30.69826912 9.4288456 -27.8927758 4.69881753 -23.3515625 1.05078125 C-16.71283636 -2.94085788 -6.94609051 -3.61743882 0 0 Z " fill="#FFFFFF" transform="translate(2902,928.625)"/>
</svg>
