<svg viewBox="0 0 58 95" fill="none" xmlns="http://www.w3.org/2000/svg">
<path d="M39.0889 20.8167C40.3322 21.5742 41.5319 21.396 42.6879 21.1955C44.0185 20.9727 45.2617 20.4602 46.4832 19.8587C49.9077 18.1655 53.3322 16.4723 56.6258 14.4894C57.0184 14.2667 57.3893 13.9325 58 13.9325C57.302 15.7594 56.6476 17.5417 55.9715 19.324C55.8624 19.6359 55.6225 19.6582 55.3607 19.5914C55.0554 19.5022 54.7282 19.4131 54.401 19.3686C52.9396 19.1903 52.4597 19.6359 52.5033 21.1286C52.5252 21.9529 52.7433 22.7327 53.1141 23.4679C53.3976 24.0026 53.354 24.3591 52.9178 24.8269C50.3658 27.6118 47.5302 28.3248 44.0403 26.988C42.4698 26.3865 41.0738 25.4285 39.5252 24.7824C39.1326 24.6264 38.7836 24.3591 38.3255 24.4482C38.3037 24.7601 38.5 24.9161 38.6309 25.072C39.8305 26.3196 39.8305 26.3196 39.0889 27.9237C36.7332 33.0479 34.3993 38.1944 32.8725 43.6528C32.698 44.2989 32.4144 44.9672 32.5889 45.7693C33.047 45.4128 33.1779 44.945 33.3742 44.5217C34.6175 41.8482 35.8826 39.1747 37.0822 36.4789C37.3658 35.8105 37.693 35.5432 38.4346 35.5432C41.6409 35.5209 44.8255 35.6546 47.9883 36.2561C48.1409 36.2784 48.2718 36.3007 48.4245 36.323C50.4748 36.8354 50.7148 37.4592 49.406 39.1747C37.2131 55.3047 26.8524 72.6156 17.6913 90.7062C17.2332 91.6197 16.7752 92.5554 16.2953 93.4688C16.1208 93.7807 15.99 94.2709 15.5755 94.204C15.1175 94.1372 15.2265 93.6248 15.1829 93.2906C14.8557 90.3275 14.943 87.3644 14.9866 84.4012C15.1175 76.1134 15.7936 67.8702 16.6661 59.6492C16.8843 57.5104 17.1678 55.3716 17.3641 53.2328C17.4296 52.5421 17.604 52.3862 18.2802 52.4307C20.1561 52.5199 22.0537 52.4753 23.9077 51.9852C24.2785 51.8738 24.693 51.8292 24.9329 51.3613C23.8641 50.9826 22.7735 51.1163 21.7047 51.0494C14.5722 50.6707 8.13762 48.4428 2.59735 43.7419C1.9648 43.2072 1.35407 42.5834 0.786952 41.9596C0.24165 41.358 0.437959 40.9793 1.22319 40.9124C6.78527 40.4 12.0856 38.7068 17.3859 37.0582C18.1057 36.8354 18.5202 36.5012 18.7165 35.6991C19.2181 33.694 19.8289 31.7112 20.4614 29.5278C21.6175 30.9091 22.7081 32.1345 23.7332 33.4044C24.1695 33.9614 24.4967 34.0728 25.151 33.694C28.8154 31.6889 31.9346 29.0154 34.552 25.6958C34.9228 25.2057 35.3154 24.7155 35.5772 23.7575C34.9228 24.3368 34.4866 24.6933 34.0722 25.0943C31.4329 27.7232 28.4665 29.9066 25.2601 31.778C24.6493 32.1345 24.2785 32.1345 23.8205 31.5552C22.8389 30.3299 21.7483 29.1714 20.7232 27.9683C20.0688 27.2108 19.6762 27.4336 19.4144 28.3025C18.7819 30.3522 18.1275 32.3796 17.495 34.4292C17.3205 35.0085 17.0369 35.3427 16.448 35.5209C12.849 36.6794 9.22822 37.7043 5.52017 38.3949C4.71312 38.5509 4.58225 38.239 4.6695 37.5483C5.08393 33.5381 5.43292 29.5056 5.9346 25.4953C6.56715 20.1929 7.41782 14.935 8.31211 9.67716C8.74835 7.09279 9.92621 5.33274 12.3692 4.24106C19.8289 0.966035 27.6376 -0.482106 35.7953 0.141709C40.0268 0.475895 44.2366 1.03287 48.2064 2.72608C50.5839 3.72864 50.802 4.35246 49.6242 6.66948C47.6829 10.5238 45.6762 14.3335 43.8221 18.2323C43.255 19.4131 42.4916 19.9478 41.3356 20.1929C40.6376 20.3488 39.8742 20.282 39.0889 20.8167ZM17.6695 15.5143C17.6695 14.2444 17.6913 12.9967 17.3859 11.7491C16.8188 9.32069 14.9866 8.63004 13.0671 10.1896C12.4564 10.702 11.8675 11.2813 11.4094 11.9273C7.9195 16.8065 6.56715 22.354 6.71983 28.3248C6.76346 29.6392 7.11245 30.9537 7.81044 32.1345C8.98829 34.095 10.9077 34.3624 12.5873 32.8251C13.4816 32.0231 14.0487 30.9983 14.5285 29.9066C16.5134 25.3394 17.4732 20.5271 17.6695 15.5143ZM17.3859 24.8715C17.6477 25.072 17.7349 25.1611 17.8222 25.1834C20.9849 26.0523 24.1913 26.6538 27.4849 26.3196C30.2332 26.03 32.2181 24.2031 32.8943 21.4405C33.3087 19.7028 33.396 17.9204 33.1779 16.1381C33.0906 15.4474 33.1561 14.8682 33.6359 14.2889C34.0722 13.7542 34.5084 13.1527 34.4866 11.9719C29.1208 17.007 23.7332 21.5074 17.3859 24.8715ZM39.0453 23.0223C40.6594 25.228 47.0067 24.9606 49.755 22.6213C46.1342 22.7995 42.6661 23.3788 39.0453 23.0223Z" fill="#8CC541"/>
</svg>
